<?xml version="1.0" encoding="UTF-8" standalone="no"?>
<svg
   version="1.1"
   viewBox="0 0 1052.4 599.99999"
   id="svg10"
   sodipodi:docname="table.svg"
   width="1052.4"
   height="600"
   inkscape:version="1.3.2 (091e20e, 2023-11-25)"
   xmlns:inkscape="http://www.inkscape.org/namespaces/inkscape"
   xmlns:sodipodi="http://sodipodi.sourceforge.net/DTD/sodipodi-0.dtd"
   xmlns="http://www.w3.org/2000/svg"
   xmlns:svg="http://www.w3.org/2000/svg">
  <defs
     id="defs10" />
  <sodipodi:namedview
     id="namedview10"
     pagecolor="#ffffff"
     bordercolor="#000000"
     borderopacity="0.25"
     inkscape:showpageshadow="2"
     inkscape:pageopacity="0.0"
     inkscape:pagecheckerboard="0"
     inkscape:deskcolor="#d1d1d1"
     inkscape:zoom="0.22424933"
     inkscape:cx="372.3534"
     inkscape:cy="526.20001"
     inkscape:window-width="1312"
     inkscape:window-height="449"
     inkscape:window-x="0"
     inkscape:window-y="25"
     inkscape:window-maximized="0"
     inkscape:current-layer="svg10" />
  <g
     transform="matrix(0.9025285,0,0,0.9025285,180.03727,-109.87108)"
     id="g2">
    <path
       d="m 184.82,383.03 h -64.146 l 3.1482,352.71 h 21.645 z"
       stroke-width="0"
       id="path1" />
    <rect
       x="66.669998"
       y="331.10999"
       width="632.35999"
       height="44.446999"
       id="rect1" />
    <path
       d="m 580.61,383.03 h 64.146 l -3.1482,352.71 h -21.645 z"
       stroke-width="0"
       id="path2" />
  </g>
  <g
     transform="matrix(0.72506138,0,0,0.72506138,-276.32012,26.056081)"
     stroke-width="0"
     id="g6">
    <path
       d="m 463.29,30.904 c -17.671,0.9457 4.215,-5.8623 -40.648,11.637 -35.016,13.658 -12.704,283.96 -10.346,351.84 16.014,-8.4072 32.542,-11.197 48.895,-12.005 17.445,-0.29413 37.407,6.0059 54.459,15.154 C 475.475,333.786 476.648,301.885 463.291,30.9 Z"
       id="path3" />
    <path
       d="m 425.78,381.13 c 85.218,-26.214 220.35,-24.927 288.3,0 30.466,11.175 0,75.955 0,75.955 h -288.3 c 0,0 -31.386,-66.301 0,-75.955 z"
       id="path4" />
    <path
       d="m 620.99,468.59 h 64.146 l -3.1482,259.77 h -21.645 z"
       id="path5" />
    <path
       d="m 518.46,468.59 h -64.146 l 3.1482,259.77 h 21.645 z"
       id="path6" />
  </g>
  <g
     transform="matrix(-0.72506138,0,0,0.72506138,1330.0862,26.056081)"
     stroke-width="0"
     id="g10">
    <path
       d="m 463.29,30.904 c -17.671,0.9457 4.215,-5.8623 -40.648,11.637 -35.016,13.658 -12.704,283.96 -10.346,351.84 16.014,-8.4072 32.542,-11.197 48.895,-12.005 17.445,-0.29413 37.407,6.0059 54.459,15.154 C 475.475,333.786 476.648,301.885 463.291,30.9 Z"
       id="path7" />
    <path
       d="m 425.78,381.13 c 85.218,-26.214 220.35,-24.927 288.3,0 30.466,11.175 0,75.955 0,75.955 h -288.3 c 0,0 -31.386,-66.301 0,-75.955 z"
       id="path8" />
    <path
       d="m 620.99,468.59 h 64.146 l -3.1482,259.77 h -21.645 z"
       id="path9" />
    <path
       d="m 518.46,468.59 h -64.146 l 3.1482,259.77 h 21.645 z"
       id="path10" />
  </g>
</svg>
